<?xml version="1.0" encoding="UTF-8"?>
<svg xmlns="http://www.w3.org/2000/svg" xmlns:xlink="http://www.w3.org/1999/xlink" width="359pt" height="242pt" viewBox="0 0 359 242" version="1.1">
<defs>
<g>
<symbol overflow="visible" id="glyph0-0">
<path style="stroke:none;" d=""/>
</symbol>
<symbol overflow="visible" id="glyph0-1">
<path style="stroke:none;" d="M 3.726562 0 L 2.847656 0 L 2.847656 -5.601562 C 2.636719 -5.398438 2.359375 -5.195312 2.015625 -4.996094 C 1.671875 -4.792969 1.363281 -4.640625 1.089844 -4.539062 L 1.089844 -5.390625 C 1.582031 -5.621094 2.011719 -5.902344 2.378906 -6.230469 C 2.746094 -6.558594 3.007812 -6.878906 3.160156 -7.1875 L 3.726562 -7.1875 Z M 3.726562 0 "/>
</symbol>
<symbol overflow="visible" id="glyph0-2">
<path style="stroke:none;" d="M 2.578125 -0.785156 L 2.703125 -0.0078125 C 2.457031 0.0429688 2.234375 0.0703125 2.039062 0.0703125 C 1.722656 0.0703125 1.476562 0.0195312 1.296875 -0.0820312 C 1.121094 -0.183594 1 -0.316406 0.929688 -0.480469 C 0.855469 -0.644531 0.820312 -0.992188 0.820312 -1.519531 L 0.820312 -4.5 L 0.175781 -4.5 L 0.175781 -5.1875 L 0.820312 -5.1875 L 0.820312 -6.46875 L 1.695312 -6.996094 L 1.695312 -5.1875 L 2.578125 -5.1875 L 2.578125 -4.5 L 1.695312 -4.5 L 1.695312 -1.46875 C 1.695312 -1.21875 1.710938 -1.058594 1.742188 -0.984375 C 1.773438 -0.914062 1.820312 -0.859375 1.890625 -0.816406 C 1.960938 -0.773438 2.0625 -0.75 2.191406 -0.75 C 2.289062 -0.75 2.417969 -0.761719 2.578125 -0.785156 Z M 2.578125 -0.785156 "/>
</symbol>
<symbol overflow="visible" id="glyph0-3">
<path style="stroke:none;" d="M 4.042969 -0.640625 C 3.71875 -0.363281 3.402344 -0.167969 3.101562 -0.0546875 C 2.800781 0.0585938 2.480469 0.117188 2.132812 0.117188 C 1.5625 0.117188 1.125 -0.0234375 0.820312 -0.300781 C 0.515625 -0.578125 0.359375 -0.933594 0.359375 -1.367188 C 0.359375 -1.621094 0.417969 -1.851562 0.535156 -2.0625 C 0.648438 -2.273438 0.800781 -2.441406 0.988281 -2.570312 C 1.175781 -2.695312 1.386719 -2.792969 1.621094 -2.855469 C 1.792969 -2.902344 2.054688 -2.945312 2.402344 -2.988281 C 3.113281 -3.074219 3.632812 -3.171875 3.96875 -3.289062 C 3.972656 -3.410156 3.976562 -3.488281 3.976562 -3.519531 C 3.976562 -3.878906 3.890625 -4.132812 3.726562 -4.277344 C 3.5 -4.476562 3.167969 -4.574219 2.726562 -4.574219 C 2.3125 -4.574219 2.007812 -4.503906 1.808594 -4.359375 C 1.613281 -4.214844 1.464844 -3.957031 1.371094 -3.589844 L 0.511719 -3.707031 C 0.589844 -4.074219 0.71875 -4.371094 0.898438 -4.597656 C 1.078125 -4.824219 1.335938 -4.996094 1.675781 -5.121094 C 2.015625 -5.242188 2.40625 -5.304688 2.851562 -5.304688 C 3.292969 -5.304688 3.652344 -5.25 3.929688 -5.148438 C 4.207031 -5.042969 4.410156 -4.910156 4.539062 -4.753906 C 4.671875 -4.59375 4.761719 -4.394531 4.8125 -4.15625 C 4.84375 -4.007812 4.859375 -3.734375 4.859375 -3.34375 L 4.859375 -2.171875 C 4.859375 -1.355469 4.878906 -0.839844 4.914062 -0.621094 C 4.953125 -0.40625 5.027344 -0.199219 5.136719 0 L 4.21875 0 C 4.128906 -0.183594 4.070312 -0.394531 4.042969 -0.640625 Z M 3.96875 -2.601562 C 3.648438 -2.472656 3.171875 -2.363281 2.535156 -2.269531 C 2.171875 -2.21875 1.917969 -2.160156 1.765625 -2.09375 C 1.617188 -2.03125 1.503906 -1.933594 1.421875 -1.808594 C 1.339844 -1.683594 1.296875 -1.542969 1.296875 -1.390625 C 1.296875 -1.15625 1.386719 -0.960938 1.566406 -0.804688 C 1.742188 -0.648438 2 -0.570312 2.34375 -0.570312 C 2.683594 -0.570312 2.984375 -0.644531 3.246094 -0.792969 C 3.511719 -0.941406 3.703125 -1.144531 3.828125 -1.402344 C 3.921875 -1.601562 3.96875 -1.894531 3.96875 -2.28125 Z M 3.96875 -2.601562 "/>
</symbol>
</g>
</defs>
<g id="surface522">
<path style=" stroke:none;fill-rule:evenodd;fill:rgb(0%,0%,99.998474%);fill-opacity:1;" d="M 9.230469 230 C 9.230469 229.410156 8.996094 228.839844 8.578125 228.421875 C 8.160156 228.003906 7.589844 227.769531 7 227.769531 C 6.410156 227.769531 5.839844 228.003906 5.421875 228.421875 C 5.003906 228.839844 4.769531 229.410156 4.769531 230 C 4.769531 230.589844 5.003906 231.160156 5.421875 231.578125 C 5.839844 231.996094 6.410156 232.230469 7 232.230469 C 7.589844 232.230469 8.160156 231.996094 8.578125 231.578125 C 8.996094 231.160156 9.230469 230.589844 9.230469 230 Z M 9.230469 230 "/>
<path style=" stroke:none;fill-rule:evenodd;fill:rgb(0%,0%,99.998474%);fill-opacity:1;" d="M 47.230469 230 C 47.230469 229.410156 46.996094 228.839844 46.578125 228.421875 C 46.160156 228.003906 45.589844 227.769531 45 227.769531 C 44.410156 227.769531 43.839844 228.003906 43.421875 228.421875 C 43.003906 228.839844 42.769531 229.410156 42.769531 230 C 42.769531 230.589844 43.003906 231.160156 43.421875 231.578125 C 43.839844 231.996094 44.410156 232.230469 45 232.230469 C 45.589844 232.230469 46.160156 231.996094 46.578125 231.578125 C 46.996094 231.160156 47.230469 230.589844 47.230469 230 Z M 47.230469 230 "/>
<path style=" stroke:none;fill-rule:evenodd;fill:rgb(0%,0%,99.998474%);fill-opacity:1;" d="M 84.230469 230 C 84.230469 229.410156 83.996094 228.839844 83.578125 228.421875 C 83.160156 228.003906 82.589844 227.769531 82 227.769531 C 81.410156 227.769531 80.839844 228.003906 80.421875 228.421875 C 80.003906 228.839844 79.769531 229.410156 79.769531 230 C 79.769531 230.589844 80.003906 231.160156 80.421875 231.578125 C 80.839844 231.996094 81.410156 232.230469 82 232.230469 C 82.589844 232.230469 83.160156 231.996094 83.578125 231.578125 C 83.996094 231.160156 84.230469 230.589844 84.230469 230 Z M 84.230469 230 "/>
<path style=" stroke:none;fill-rule:evenodd;fill:rgb(0%,0%,99.998474%);fill-opacity:1;" d="M 121.230469 147 C 121.230469 146.410156 120.996094 145.839844 120.578125 145.421875 C 120.160156 145.003906 119.589844 144.769531 119 144.769531 C 118.410156 144.769531 117.839844 145.003906 117.421875 145.421875 C 117.003906 145.839844 116.769531 146.410156 116.769531 147 C 116.769531 147.589844 117.003906 148.160156 117.421875 148.578125 C 117.839844 148.996094 118.410156 149.230469 119 149.230469 C 119.589844 149.230469 120.160156 148.996094 120.578125 148.578125 C 120.996094 148.160156 121.230469 147.589844 121.230469 147 Z M 121.230469 147 "/>
<path style=" stroke:none;fill-rule:evenodd;fill:rgb(0%,0%,99.998474%);fill-opacity:1;" d="M 158.230469 147 C 158.230469 146.410156 157.996094 145.839844 157.578125 145.421875 C 157.160156 145.003906 156.589844 144.769531 156 144.769531 C 155.410156 144.769531 154.839844 145.003906 154.421875 145.421875 C 154.003906 145.839844 153.769531 146.410156 153.769531 147 C 153.769531 147.589844 154.003906 148.160156 154.421875 148.578125 C 154.839844 148.996094 155.410156 149.230469 156 149.230469 C 156.589844 149.230469 157.160156 148.996094 157.578125 148.578125 C 157.996094 148.160156 158.230469 147.589844 158.230469 147 Z M 158.230469 147 "/>
<path style=" stroke:none;fill-rule:evenodd;fill:rgb(0%,0%,99.998474%);fill-opacity:1;" d="M 195.230469 147 C 195.230469 146.410156 194.996094 145.839844 194.578125 145.421875 C 194.160156 145.003906 193.589844 144.769531 193 144.769531 C 192.410156 144.769531 191.839844 145.003906 191.421875 145.421875 C 191.003906 145.839844 190.769531 146.410156 190.769531 147 C 190.769531 147.589844 191.003906 148.160156 191.421875 148.578125 C 191.839844 148.996094 192.410156 149.230469 193 149.230469 C 193.589844 149.230469 194.160156 148.996094 194.578125 148.578125 C 194.996094 148.160156 195.230469 147.589844 195.230469 147 Z M 195.230469 147 "/>
<path style=" stroke:none;fill-rule:evenodd;fill:rgb(0%,0%,99.998474%);fill-opacity:1;" d="M 232.230469 147 C 232.230469 146.410156 231.996094 145.839844 231.578125 145.421875 C 231.160156 145.003906 230.589844 144.769531 230 144.769531 C 229.410156 144.769531 228.839844 145.003906 228.421875 145.421875 C 228.003906 145.839844 227.769531 146.410156 227.769531 147 C 227.769531 147.589844 228.003906 148.160156 228.421875 148.578125 C 228.839844 148.996094 229.410156 149.230469 230 149.230469 C 230.589844 149.230469 231.160156 148.996094 231.578125 148.578125 C 231.996094 148.160156 232.230469 147.589844 232.230469 147 Z M 232.230469 147 "/>
<path style=" stroke:none;fill-rule:evenodd;fill:rgb(0%,0%,99.998474%);fill-opacity:1;" d="M 269.230469 147 C 269.230469 146.410156 268.996094 145.839844 268.578125 145.421875 C 268.160156 145.003906 267.589844 144.769531 267 144.769531 C 266.410156 144.769531 265.839844 145.003906 265.421875 145.421875 C 265.003906 145.839844 264.769531 146.410156 264.769531 147 C 264.769531 147.589844 265.003906 148.160156 265.421875 148.578125 C 265.839844 148.996094 266.410156 149.230469 267 149.230469 C 267.589844 149.230469 268.160156 148.996094 268.578125 148.578125 C 268.996094 148.160156 269.230469 147.589844 269.230469 147 Z M 269.230469 147 "/>
<path style=" stroke:none;fill-rule:evenodd;fill:rgb(0%,0%,99.998474%);fill-opacity:1;" d="M 306.230469 147 C 306.230469 146.410156 305.996094 145.839844 305.578125 145.421875 C 305.160156 145.003906 304.589844 144.769531 304 144.769531 C 303.410156 144.769531 302.839844 145.003906 302.421875 145.421875 C 302.003906 145.839844 301.769531 146.410156 301.769531 147 C 301.769531 147.589844 302.003906 148.160156 302.421875 148.578125 C 302.839844 148.996094 303.410156 149.230469 304 149.230469 C 304.589844 149.230469 305.160156 148.996094 305.578125 148.578125 C 305.996094 148.160156 306.230469 147.589844 306.230469 147 Z M 306.230469 147 "/>
<path style=" stroke:none;fill-rule:evenodd;fill:rgb(0%,0%,99.998474%);fill-opacity:1;" d="M 343.230469 147 C 343.230469 146.410156 342.996094 145.839844 342.578125 145.421875 C 342.160156 145.003906 341.589844 144.769531 341 144.769531 C 340.410156 144.769531 339.839844 145.003906 339.421875 145.421875 C 339.003906 145.839844 338.769531 146.410156 338.769531 147 C 338.769531 147.589844 339.003906 148.160156 339.421875 148.578125 C 339.839844 148.996094 340.410156 149.230469 341 149.230469 C 341.589844 149.230469 342.160156 148.996094 342.578125 148.578125 C 342.996094 148.160156 343.230469 147.589844 343.230469 147 Z M 343.230469 147 "/>
<path style=" stroke:none;fill-rule:evenodd;fill:rgb(99.998474%,0%,0%);fill-opacity:1;" d="M 9.230469 230 C 9.230469 229.410156 8.996094 228.839844 8.578125 228.421875 C 8.160156 228.003906 7.589844 227.769531 7 227.769531 C 6.410156 227.769531 5.839844 228.003906 5.421875 228.421875 C 5.003906 228.839844 4.769531 229.410156 4.769531 230 C 4.769531 230.589844 5.003906 231.160156 5.421875 231.578125 C 5.839844 231.996094 6.410156 232.230469 7 232.230469 C 7.589844 232.230469 8.160156 231.996094 8.578125 231.578125 C 8.996094 231.160156 9.230469 230.589844 9.230469 230 Z M 9.230469 230 "/>
<path style=" stroke:none;fill-rule:evenodd;fill:rgb(99.998474%,0%,0%);fill-opacity:1;" d="M 47.230469 230 C 47.230469 229.410156 46.996094 228.839844 46.578125 228.421875 C 46.160156 228.003906 45.589844 227.769531 45 227.769531 C 44.410156 227.769531 43.839844 228.003906 43.421875 228.421875 C 43.003906 228.839844 42.769531 229.410156 42.769531 230 C 42.769531 230.589844 43.003906 231.160156 43.421875 231.578125 C 43.839844 231.996094 44.410156 232.230469 45 232.230469 C 45.589844 232.230469 46.160156 231.996094 46.578125 231.578125 C 46.996094 231.160156 47.230469 230.589844 47.230469 230 Z M 47.230469 230 "/>
<path style=" stroke:none;fill-rule:evenodd;fill:rgb(99.998474%,0%,0%);fill-opacity:1;" d="M 84.230469 230 C 84.230469 229.410156 83.996094 228.839844 83.578125 228.421875 C 83.160156 228.003906 82.589844 227.769531 82 227.769531 C 81.410156 227.769531 80.839844 228.003906 80.421875 228.421875 C 80.003906 228.839844 79.769531 229.410156 79.769531 230 C 79.769531 230.589844 80.003906 231.160156 80.421875 231.578125 C 80.839844 231.996094 81.410156 232.230469 82 232.230469 C 82.589844 232.230469 83.160156 231.996094 83.578125 231.578125 C 83.996094 231.160156 84.230469 230.589844 84.230469 230 Z M 84.230469 230 "/>
<path style=" stroke:none;fill-rule:evenodd;fill:rgb(99.998474%,0%,0%);fill-opacity:1;" d="M 121.230469 147 C 121.230469 146.410156 120.996094 145.839844 120.578125 145.421875 C 120.160156 145.003906 119.589844 144.769531 119 144.769531 C 118.410156 144.769531 117.839844 145.003906 117.421875 145.421875 C 117.003906 145.839844 116.769531 146.410156 116.769531 147 C 116.769531 147.589844 117.003906 148.160156 117.421875 148.578125 C 117.839844 148.996094 118.410156 149.230469 119 149.230469 C 119.589844 149.230469 120.160156 148.996094 120.578125 148.578125 C 120.996094 148.160156 121.230469 147.589844 121.230469 147 Z M 121.230469 147 "/>
<path style=" stroke:none;fill-rule:evenodd;fill:rgb(99.998474%,0%,0%);fill-opacity:1;" d="M 158.230469 122 C 158.230469 121.410156 157.996094 120.839844 157.578125 120.421875 C 157.160156 120.003906 156.589844 119.769531 156 119.769531 C 155.410156 119.769531 154.839844 120.003906 154.421875 120.421875 C 154.003906 120.839844 153.769531 121.410156 153.769531 122 C 153.769531 122.589844 154.003906 123.160156 154.421875 123.578125 C 154.839844 123.996094 155.410156 124.230469 156 124.230469 C 156.589844 124.230469 157.160156 123.996094 157.578125 123.578125 C 157.996094 123.160156 158.230469 122.589844 158.230469 122 Z M 158.230469 122 "/>
<path style=" stroke:none;fill-rule:evenodd;fill:rgb(99.998474%,0%,0%);fill-opacity:1;" d="M 195.230469 108 C 195.230469 107.410156 194.996094 106.839844 194.578125 106.421875 C 194.160156 106.003906 193.589844 105.769531 193 105.769531 C 192.410156 105.769531 191.839844 106.003906 191.421875 106.421875 C 191.003906 106.839844 190.769531 107.410156 190.769531 108 C 190.769531 108.589844 191.003906 109.160156 191.421875 109.578125 C 191.839844 109.996094 192.410156 110.230469 193 110.230469 C 193.589844 110.230469 194.160156 109.996094 194.578125 109.578125 C 194.996094 109.160156 195.230469 108.589844 195.230469 108 Z M 195.230469 108 "/>
<path style=" stroke:none;fill-rule:evenodd;fill:rgb(99.998474%,0%,0%);fill-opacity:1;" d="M 232.230469 99 C 232.230469 98.410156 231.996094 97.839844 231.578125 97.421875 C 231.160156 97.003906 230.589844 96.769531 230 96.769531 C 229.410156 96.769531 228.839844 97.003906 228.421875 97.421875 C 228.003906 97.839844 227.769531 98.410156 227.769531 99 C 227.769531 99.589844 228.003906 100.160156 228.421875 100.578125 C 228.839844 100.996094 229.410156 101.230469 230 101.230469 C 230.589844 101.230469 231.160156 100.996094 231.578125 100.578125 C 231.996094 100.160156 232.230469 99.589844 232.230469 99 Z M 232.230469 99 "/>
<path style=" stroke:none;fill-rule:evenodd;fill:rgb(99.998474%,0%,0%);fill-opacity:1;" d="M 269.230469 93 C 269.230469 92.410156 268.996094 91.839844 268.578125 91.421875 C 268.160156 91.003906 267.589844 90.769531 267 90.769531 C 266.410156 90.769531 265.839844 91.003906 265.421875 91.421875 C 265.003906 91.839844 264.769531 92.410156 264.769531 93 C 264.769531 93.589844 265.003906 94.160156 265.421875 94.578125 C 265.839844 94.996094 266.410156 95.230469 267 95.230469 C 267.589844 95.230469 268.160156 94.996094 268.578125 94.578125 C 268.996094 94.160156 269.230469 93.589844 269.230469 93 Z M 269.230469 93 "/>
<path style=" stroke:none;fill-rule:evenodd;fill:rgb(99.998474%,0%,0%);fill-opacity:1;" d="M 306.230469 90 C 306.230469 89.410156 305.996094 88.839844 305.578125 88.421875 C 305.160156 88.003906 304.589844 87.769531 304 87.769531 C 303.410156 87.769531 302.839844 88.003906 302.421875 88.421875 C 302.003906 88.839844 301.769531 89.410156 301.769531 90 C 301.769531 90.589844 302.003906 91.160156 302.421875 91.578125 C 302.839844 91.996094 303.410156 92.230469 304 92.230469 C 304.589844 92.230469 305.160156 91.996094 305.578125 91.578125 C 305.996094 91.160156 306.230469 90.589844 306.230469 90 Z M 306.230469 90 "/>
<path style=" stroke:none;fill-rule:evenodd;fill:rgb(99.998474%,0%,0%);fill-opacity:1;" d="M 343.230469 88 C 343.230469 87.410156 342.996094 86.839844 342.578125 86.421875 C 342.160156 86.003906 341.589844 85.769531 341 85.769531 C 340.410156 85.769531 339.839844 86.003906 339.421875 86.421875 C 339.003906 86.839844 338.769531 87.410156 338.769531 88 C 338.769531 88.589844 339.003906 89.160156 339.421875 89.578125 C 339.839844 89.996094 340.410156 90.230469 341 90.230469 C 341.589844 90.230469 342.160156 89.996094 342.578125 89.578125 C 342.996094 89.160156 343.230469 88.589844 343.230469 88 Z M 343.230469 88 "/>
<path style="fill:none;stroke-width:0.2;stroke-linecap:butt;stroke-linejoin:miter;stroke:rgb(39.99939%,39.99939%,39.99939%);stroke-opacity:1;stroke-miterlimit:3.25;" d="M 192.648438 242.753906 L 192.648438 238.753906 " transform="matrix(1,0,0,1,-74,-13)"/>
<g style="fill:rgb(39.99939%,39.99939%,39.99939%);fill-opacity:1;">
  <use xlink:href="#glyph0-1" x="115.65" y="241.752478"/>
</g>
<path style="fill:none;stroke-width:0.2;stroke-linecap:butt;stroke-linejoin:miter;stroke:rgb(39.99939%,39.99939%,39.99939%);stroke-opacity:1;stroke-miterlimit:3.25;" d="M 74.5 242.753906 L 422 242.753906 " transform="matrix(1,0,0,1,-74,-13)"/>
<g style="fill:rgb(39.99939%,39.99939%,39.99939%);fill-opacity:1;">
  <use xlink:href="#glyph0-2" x="356" y="232.252478"/>
</g>
<path style="fill:none;stroke-width:0.2;stroke-linecap:butt;stroke-linejoin:miter;stroke:rgb(39.99939%,39.99939%,39.99939%);stroke-opacity:1;stroke-miterlimit:3.25;" d="M 81.449219 246.765625 L 81.449219 32 " transform="matrix(1,0,0,1,-74,-13)"/>
<g style="fill:rgb(39.99939%,39.99939%,39.99939%);fill-opacity:1;">
  <use xlink:href="#glyph0-3" x="4.45" y="9"/>
</g>
</g>
</svg>
